<?xml version="1.0" encoding="utf-8"?>
<!-- Generator: Adobe Illustrator 25.0.0, SVG Export Plug-In . SVG Version: 6.00 Build 0)  -->
<svg version="1.1" xmlns="http://www.w3.org/2000/svg" xmlns:xlink="http://www.w3.org/1999/xlink" x="0px" y="0px"
	 viewBox="0 0 300 300" style="enable-background:new 0 0 300 300;" xml:space="preserve">
<style type="text/css">
	.st0{opacity:0.86;fill:url(#SVGID_1_);}
	.st1{fill:url(#SVGID_2_);}
	.st2{opacity:0.86;}
	.st3{clip-path:url(#SVGID_7_);fill:url(#SVGID_8_);}
	.st4{clip-path:url(#SVGID_7_);fill:url(#SVGID_9_);}
	.st5{opacity:0.5;clip-path:url(#SVGID_7_);}
	.st6{opacity:0.5;}
	.st7{opacity:0.86;clip-path:url(#SVGID_7_);fill:url(#SVGID_12_);}
	.st8{opacity:0.7;clip-path:url(#SVGID_7_);fill:url(#SVGID_13_);}
	.st9{clip-path:url(#SVGID_7_);}
	.st10{fill:#1C2072;}
	.st11{fill:#662D91;}
	.st12{fill:#BB80DE;}
	.st13{fill:#4A1E70;}
	.st14{fill:#F3FCFF;}
	.st15{fill:#B6D5E0;}
	.st16{fill:#FFFFFF;}
	.st17{fill:#5C5C5C;}
	.st18{fill:#FDA379;}
	.st19{fill:#994F39;}
	.st20{fill:#331519;}
	.st21{fill:#334B4F;}
	.st22{fill:#0071BC;}
	.st23{fill:#F49067;}
	.st24{fill:#FF9966;}
	.st25{fill:#FEB546;}
	.st26{fill:#FD8168;}
	.st27{fill:#B85244;}
	.st28{fill:#4F291D;}
	.st29{fill:#F78B41;}
	.st30{fill:#05527C;}
	.st31{opacity:0.7;fill:url(#SVGID_14_);}
	.st32{opacity:0.86;fill:url(#SVGID_15_);}
	.st33{opacity:0.86;fill:url(#SVGID_16_);}
</style>
<g id="Capa_3">
</g>
<g id="Capa_2">
</g>
<g id="Capa_4">
</g>
<g id="Capa_1">
	<linearGradient id="SVGID_1_" gradientUnits="userSpaceOnUse" x1="37.8901" y1="78.6495" x2="77.2641" y2="78.6495">
		<stop  offset="0" style="stop-color:#AF4090"/>
		<stop  offset="1" style="stop-color:#61388E"/>
	</linearGradient>
	<path class="st0" d="M77.3,78.6c0-10.9-8.8-19.7-19.7-19.7c-10.9,0-19.7,8.8-19.7,19.7s8.8,19.7,19.7,19.7
		C68.4,98.3,77.3,89.5,77.3,78.6z"/>
	<g>
		
			<radialGradient id="SVGID_2_" cx="-8706.2051" cy="-4411.7407" r="117.6232" gradientTransform="matrix(-0.4933 -0.5663 -0.4268 0.3718 -5977.6123 -3199.8374)" gradientUnits="userSpaceOnUse">
			<stop  offset="0" style="stop-color:#009EFF"/>
			<stop  offset="1.838481e-02" style="stop-color:#0AA2FF"/>
			<stop  offset="0.134" style="stop-color:#42B7FF"/>
			<stop  offset="0.253" style="stop-color:#75CAFF"/>
			<stop  offset="0.3727" style="stop-color:#9FDBFF"/>
			<stop  offset="0.4935" style="stop-color:#C2E8FF"/>
			<stop  offset="0.6155" style="stop-color:#DDF2FF"/>
			<stop  offset="0.7392" style="stop-color:#F0F9FF"/>
			<stop  offset="0.8659" style="stop-color:#FBFEFF"/>
			<stop  offset="1" style="stop-color:#FFFFFF"/>
		</radialGradient>
		<path class="st1" d="M258.1,156.8c27.7-24.2,24.2-73.6-7.8-110.3c-32-36.8-80.5-47-108.2-22.9c-27.7,24.2-24.2,73.6,7.8,110.3
			C181.9,170.7,230.4,181,258.1,156.8z"/>
		<g class="st2">
			<defs>
				<path id="SVGID_3_" class="st2" d="M117.9,106c11.2-5.8,25.1-1,35.1,6.2c10,7.2,18.5,16.6,30,21.5c24.3,10.3,55.9-6.2,63.9-30.9
					c8.1-24.7-5.1-52.7-27.5-66.5c-22.4-13.8-51.8-14.7-77.3-6.4C119.7,37.1,99.2,51.3,87,70.8c-12.2,19.5-15.5,44.5-6.4,65.2
					c5.3,12.1,23,25.6,26.1,8C109.1,130.2,100.6,115,117.9,106z"/>
			</defs>
			
				<linearGradient id="SVGID_4_" gradientUnits="userSpaceOnUse" x1="-7856.9326" y1="684.1346" x2="-7679.375" y2="684.1346" gradientTransform="matrix(-0.9779 0.2089 0.2089 0.9779 -7579.9771 1039.6885)">
				<stop  offset="0" style="stop-color:#AF4090"/>
				<stop  offset="1" style="stop-color:#61388E"/>
			</linearGradient>
			<use xlink:href="#SVGID_3_"  style="overflow:visible;fill:url(#SVGID_4_);"/>
			<clipPath id="SVGID_5_">
				<use xlink:href="#SVGID_3_"  style="overflow:visible;"/>
			</clipPath>
		</g>
		<g>
			<defs>
				<path id="SVGID_6_" d="M278.4,151.4c0-72.5-58.8-131.3-131.3-131.3S15.8,78.8,15.8,151.4c0,72.5,58.8,131.3,131.3,131.3
					S278.4,223.9,278.4,151.4z"/>
			</defs>
			<clipPath id="SVGID_7_">
				<use xlink:href="#SVGID_6_"  style="overflow:visible;"/>
			</clipPath>
			
				<radialGradient id="SVGID_8_" cx="1701.8959" cy="-206.0049" r="123.9243" gradientTransform="matrix(0.7076 0.2518 0.1898 -0.5333 -1094.7733 -350.4278)" gradientUnits="userSpaceOnUse">
				<stop  offset="0" style="stop-color:#009EFF"/>
				<stop  offset="1.838481e-02" style="stop-color:#0AA2FF"/>
				<stop  offset="0.134" style="stop-color:#42B7FF"/>
				<stop  offset="0.253" style="stop-color:#75CAFF"/>
				<stop  offset="0.3727" style="stop-color:#9FDBFF"/>
				<stop  offset="0.4935" style="stop-color:#C2E8FF"/>
				<stop  offset="0.6155" style="stop-color:#DDF2FF"/>
				<stop  offset="0.7392" style="stop-color:#F0F9FF"/>
				<stop  offset="0.8659" style="stop-color:#FBFEFF"/>
				<stop  offset="1" style="stop-color:#FFFFFF"/>
			</radialGradient>
			<path class="st3" d="M-17.3,156.8c-13,36.5,15.7,80.1,64.2,97.3c48.4,17.2,98.2,1.6,111.2-34.9c13-36.5-15.7-80.1-64.2-97.3
				C45.5,104.6-4.3,120.3-17.3,156.8z"/>
			
				<radialGradient id="SVGID_9_" cx="1116.5963" cy="-3044.1675" r="125.1121" gradientTransform="matrix(0.7473 -7.480000e-02 -5.630000e-02 -0.5632 -881.377 -1432.2513)" gradientUnits="userSpaceOnUse">
				<stop  offset="0" style="stop-color:#009EFF"/>
				<stop  offset="1.838481e-02" style="stop-color:#0AA2FF"/>
				<stop  offset="0.134" style="stop-color:#42B7FF"/>
				<stop  offset="0.253" style="stop-color:#75CAFF"/>
				<stop  offset="0.3727" style="stop-color:#9FDBFF"/>
				<stop  offset="0.4935" style="stop-color:#C2E8FF"/>
				<stop  offset="0.6155" style="stop-color:#DDF2FF"/>
				<stop  offset="0.7392" style="stop-color:#F0F9FF"/>
				<stop  offset="0.8659" style="stop-color:#FBFEFF"/>
				<stop  offset="1" style="stop-color:#FFFFFF"/>
			</radialGradient>
			<path class="st4" d="M30.9,208.1c3.9,38.9,48.9,66.3,100.5,61.1c51.6-5.2,90.3-40.9,86.4-79.8c-3.9-38.9-48.9-66.3-100.5-61.1
				C65.8,133.4,27.1,169.1,30.9,208.1z"/>
			<g class="st5">
				<defs>
					<path id="SVGID_10_" class="st6" d="M113,298.9c6.8,1.6,13.8,2.2,20.7,1.9c17.3-0.8,34-6.8,49.1-15.3
						c26.9-15,49.3-37.4,67-62.6c18.9-26.9,33.2-58.3,33.4-91.2c0.2-32.9-15.8-67.1-45-82.3c-13.1-6.8-28.3-9.6-42.9-7.8
						c-13.3,1.6-26.5,7.3-34.9,17.8c-10.8,13.5-11.8,32.1-13,49.3c-1.9,25.5-5.6,51-13.5,75.3c-9.3,28.6-24.6,55.4-47.3,75.4
						c-9.5,8.4-11.1,16.7-0.9,25.7C93.3,292,102.9,296.6,113,298.9z"/>
				</defs>
				<clipPath id="SVGID_11_">
					<use xlink:href="#SVGID_10_"  style="overflow:visible;"/>
				</clipPath>
			</g>
			
				<linearGradient id="SVGID_12_" gradientUnits="userSpaceOnUse" x1="167.0239" y1="-878.9586" x2="377.0141" y2="-878.9586" gradientTransform="matrix(0.9659 0.259 -0.259 0.9659 -351.4035 992.3992)">
				<stop  offset="0" style="stop-color:#AF4090"/>
				<stop  offset="1" style="stop-color:#61388E"/>
			</linearGradient>
			<path class="st7" d="M233.5,192.5c5.2,3.4,9.4,7.9,11.6,13.6c4.2,11.3-1.2,24.5-10.1,32.7c-13.1,12-31.3,14.6-47.3,20.8
				c-18.1,7-28.3,28.4-48.2,30.8c-12.3,1.5-24-5.7-33.1-14.1c-15.1-13.8-26.2-31.4-36.1-49.3C55,199.7,42,169.8,50.6,138.1
				c1.9-6.9,5-14.1,11.2-17.7c7-4.2,16.3-2.6,23.2,1.7c6.9,4.3,12,11,17,17.4c10.2,13.2,21.2,26.6,36.2,34
				c25.4,12.4,56.3,4.8,83.2,13.4C225.6,188.2,229.8,190.1,233.5,192.5z"/>
			
				<linearGradient id="SVGID_13_" gradientUnits="userSpaceOnUse" x1="-7921.835" y1="121.7252" x2="-7909.5308" y2="121.7252" gradientTransform="matrix(-1 0 0 1 -7876.0195 0)">
				<stop  offset="0" style="stop-color:#753D90"/>
				<stop  offset="0.5471" style="stop-color:#6C2383"/>
				<stop  offset="1" style="stop-color:#1B6CB7"/>
			</linearGradient>
			<path class="st8" d="M45.8,121.7c0-3.4-2.8-6.2-6.2-6.2c-3.4,0-6.2,2.8-6.2,6.2c0,3.4,2.8,6.2,6.2,6.2
				C43.1,127.9,45.8,125.1,45.8,121.7z"/>
			<g class="st9">
				<g>
					<g>
						<g>
							<polygon class="st10" points="147.9,283.7 147.9,104.3 15,74.5 15,283.7 							"/>
						</g>
						<g>
							<polygon class="st11" points="151.6,283.7 151.6,100.7 148.1,100.7 148.1,283.7 							"/>
						</g>
						<g>
							<polygon class="st12" points="15,74.5 16.6,73.4 151.3,102.8 147.9,104.3 							"/>
						</g>
						<g>
							<polygon class="st13" points="15,283.7 15,74.5 13.3,74.9 13.3,283.7 							"/>
						</g>
						<g>
							<path class="st14" d="M142.3,106.3l-118-29.6c0,0-6.2,2.6-9.2,2.3l56.1,47.4c0,0,38.9,5.1,39.9,3.4
								C112,128,142.3,106.3,142.3,106.3z"/>
						</g>
						<g>
							<polygon class="st15" points="142.3,283.7 142.3,106.3 127.2,113.1 127.2,283.7 							"/>
						</g>
						<g>
							<polygon class="st16" points="127.2,283.7 127.2,113 15,78.9 15,283.7 							"/>
						</g>
						<g>
							<g>
								<g>
									<path class="st17" d="M105.2,238.3c0-0.8,0.6-1.4,1.4-1.4c0.8,0,1.4,0.6,1.3,1.4c0,0.8-0.6,1.4-1.4,1.4
										C105.8,239.7,105.2,239.1,105.2,238.3z"/>
								</g>
								<g>
									<path class="st17" d="M105.3,230.3c0-0.8,0.6-1.4,1.4-1.4c0.8,0,1.4,0.6,1.3,1.4c0,0.8-0.6,1.4-1.4,1.4
										C105.9,231.7,105.3,231.1,105.3,230.3z"/>
								</g>
								<g>
									<path class="st17" d="M100,234.2c0-0.8,0.6-1.4,1.4-1.4c0.8,0,1.4,0.6,1.3,1.4c0,0.8-0.6,1.4-1.4,1.4
										C100.6,235.6,100,235,100,234.2z"/>
								</g>
								<g>
									<path class="st17" d="M95.9,238.2c0-0.8,0.6-1.4,1.4-1.4c0.8,0,1.4,0.6,1.3,1.4c0,0.8-0.6,1.4-1.4,1.4
										C96.5,239.6,95.9,238.9,95.9,238.2z"/>
								</g>
								<g>
									<path class="st17" d="M105.5,222.3c0-0.8,0.6-1.4,1.4-1.4c0.8,0,1.4,0.6,1.3,1.4c0,0.8-0.6,1.4-1.4,1.4
										C106.1,223.7,105.5,223,105.5,222.3z"/>
								</g>
							</g>
							<g>
								<g>
									<path class="st17" d="M82.7,232.2c0-0.8,0.6-1.4,1.4-1.4c0.8,0,1.4,0.6,1.3,1.4c0,0.8-0.6,1.4-1.4,1.4
										C83.3,233.6,82.7,233,82.7,232.2z"/>
								</g>
								<g>
									<path class="st17" d="M82.9,224.2c0-0.8,0.6-1.4,1.4-1.4c0.8,0,1.4,0.6,1.3,1.4c0,0.8-0.6,1.4-1.4,1.4
										C83.4,225.6,82.8,225,82.9,224.2z"/>
								</g>
								<g>
									<path class="st17" d="M77.6,224.1c0-0.8,0.6-1.4,1.4-1.4c0.8,0,1.4,0.6,1.3,1.4c0,0.8-0.6,1.4-1.4,1.4
										C78.1,225.5,77.5,224.9,77.6,224.1z"/>
								</g>
								<g>
									<path class="st17" d="M72.3,224c0-0.8,0.6-1.4,1.4-1.4c0.8,0,1.4,0.6,1.3,1.4c0,0.8-0.6,1.4-1.4,1.4
										C72.9,225.4,72.3,224.8,72.3,224z"/>
								</g>
								<g>
									<path class="st17" d="M83,216.2c0-0.8,0.6-1.4,1.4-1.4c0.8,0,1.4,0.6,1.3,1.4c0,0.8-0.6,1.4-1.4,1.4
										C83.6,217.6,83,216.9,83,216.2z"/>
								</g>
							</g>
							<g>
								<g>
									<path class="st17" d="M39,212.1c0-0.8,0.6-1.4,1.4-1.4c0.8,0,1.4,0.6,1.3,1.4c0,0.8-0.6,1.4-1.4,1.4
										C39.6,213.5,39,212.9,39,212.1z"/>
								</g>
								<g>
									<path class="st17" d="M39.1,204.1c0-0.8,0.6-1.4,1.4-1.4c0.8,0,1.4,0.6,1.3,1.4c0,0.8-0.6,1.4-1.4,1.4
										C39.7,205.5,39.1,204.9,39.1,204.1z"/>
								</g>
								<g>
									<path class="st17" d="M28.6,203.9c0-0.8,0.6-1.4,1.4-1.4c0.8,0,1.4,0.6,1.3,1.4c0,0.8-0.6,1.4-1.4,1.4
										C29.1,205.3,28.5,204.7,28.6,203.9z"/>
								</g>
								<g>
									<path class="st17" d="M33.7,212c0-0.8,0.6-1.4,1.4-1.4c0.8,0,1.4,0.6,1.3,1.4c0,0.8-0.6,1.4-1.4,1.4
										C34.3,213.4,33.7,212.8,33.7,212z"/>
								</g>
								<g>
									<path class="st17" d="M39.3,196.1c0-0.8,0.6-1.4,1.4-1.4c0.8,0,1.4,0.6,1.3,1.4c0,0.8-0.6,1.4-1.4,1.4
										C39.9,197.5,39.3,196.8,39.3,196.1z"/>
								</g>
							</g>
							<g>
								<g>
									<path class="st17" d="M58.4,223.8c0-0.8,0.6-1.4,1.4-1.4c0.8,0,1.4,0.6,1.3,1.4c0,0.8-0.6,1.4-1.4,1.4
										C59,225.2,58.4,224.6,58.4,223.8z"/>
								</g>
								<g>
									<path class="st17" d="M53.1,223.7c0-0.8,0.6-1.4,1.4-1.4c0.8,0,1.4,0.6,1.3,1.4c0,0.8-0.6,1.4-1.4,1.4
										C53.7,225.1,53.1,224.5,53.1,223.7z"/>
								</g>
								<g>
									<path class="st17" d="M58.6,215.8c0-0.8,0.6-1.4,1.4-1.4c0.8,0,1.4,0.6,1.3,1.4c0,0.8-0.6,1.4-1.4,1.4
										C59.2,217.2,58.6,216.6,58.6,215.8z"/>
								</g>
								<g>
									<path class="st17" d="M53.3,215.7c0-0.8,0.6-1.4,1.4-1.4c0.8,0,1.4,0.6,1.3,1.4c0,0.8-0.6,1.4-1.4,1.4
										C53.9,217.1,53.3,216.5,53.3,215.7z"/>
								</g>
								<g>
									<path class="st17" d="M58.7,207.8c0-0.8,0.6-1.4,1.4-1.4c0.8,0,1.4,0.6,1.3,1.4c0,0.8-0.6,1.4-1.4,1.4
										C59.3,209.2,58.7,208.5,58.7,207.8z"/>
								</g>
							</g>
							<g>
								<g>
									<path class="st17" d="M106.8,149.9c0-0.8,0.6-1.4,1.4-1.4c0.8,0,1.4,0.6,1.3,1.4c0,0.8-0.6,1.4-1.4,1.4
										C107.4,151.3,106.8,150.6,106.8,149.9z"/>
								</g>
								<g>
									<path class="st17" d="M107,141.9c0-0.8,0.6-1.4,1.4-1.4c0.8,0,1.4,0.6,1.3,1.4c0,0.8-0.6,1.4-1.4,1.4
										C107.6,143.3,107,142.6,107,141.9z"/>
								</g>
								<g>
									<path class="st17" d="M101.6,145.8c0-0.8,0.6-1.4,1.4-1.4c0.8,0,1.4,0.6,1.3,1.4c0,0.8-0.6,1.4-1.4,1.4
										C102.2,147.2,101.6,146.5,101.6,145.8z"/>
								</g>
								<g>
									<path class="st17" d="M97.5,149.7c0-0.8,0.6-1.4,1.4-1.4c0.8,0,1.4,0.6,1.3,1.4c0,0.8-0.6,1.4-1.4,1.4
										C98.1,151.1,97.5,150.5,97.5,149.7z"/>
								</g>
								<g>
									<path class="st17" d="M107.1,133.8c0-0.8,0.6-1.4,1.4-1.4c0.8,0,1.4,0.6,1.3,1.4c0,0.8-0.6,1.4-1.4,1.4
										C107.7,135.2,107.1,134.6,107.1,133.8z"/>
								</g>
							</g>
							<g>
								<g>
									<path class="st17" d="M84.3,143.8c0-0.8,0.6-1.4,1.4-1.4c0.8,0,1.4,0.6,1.3,1.4c0,0.8-0.6,1.4-1.4,1.4
										C84.9,145.2,84.3,144.5,84.3,143.8z"/>
								</g>
								<g>
									<path class="st17" d="M84.5,135.8c0-0.8,0.6-1.4,1.4-1.4c0.8,0,1.4,0.6,1.3,1.4c0,0.8-0.6,1.4-1.4,1.4
										C85.1,137.2,84.5,136.5,84.5,135.8z"/>
								</g>
								<g>
									<path class="st17" d="M79.2,135.7c0-0.8,0.6-1.4,1.4-1.4c0.8,0,1.4,0.6,1.3,1.4c0,0.8-0.6,1.4-1.4,1.4
										C79.8,137.1,79.2,136.4,79.2,135.7z"/>
								</g>
								<g>
									<path class="st17" d="M73.9,135.6c0-0.8,0.6-1.4,1.4-1.4c0.8,0,1.4,0.6,1.3,1.4c0,0.8-0.6,1.4-1.4,1.4
										C74.5,137,73.9,136.3,73.9,135.6z"/>
								</g>
								<g>
									<path class="st17" d="M84.6,127.7c0-0.8,0.6-1.4,1.4-1.4c0.8,0,1.4,0.6,1.3,1.4c0,0.8-0.6,1.4-1.4,1.4
										C85.2,129.1,84.6,128.5,84.6,127.7z"/>
								</g>
							</g>
							<g>
								<g>
									<path class="st17" d="M40.6,123.7c0-0.8,0.6-1.4,1.4-1.4c0.8,0,1.4,0.6,1.3,1.4c0,0.8-0.6,1.4-1.4,1.4
										C41.2,125.1,40.6,124.4,40.6,123.7z"/>
								</g>
								<g>
									<path class="st17" d="M40.8,115.7c0-0.8,0.6-1.4,1.4-1.4c0.8,0,1.4,0.6,1.3,1.4c0,0.8-0.6,1.4-1.4,1.4
										C41.3,117,40.7,116.4,40.8,115.7z"/>
								</g>
								<g>
									<path class="st17" d="M30.2,115.5c0-0.8,0.6-1.4,1.4-1.4c0.8,0,1.4,0.6,1.3,1.4c0,0.8-0.6,1.4-1.4,1.4
										C30.8,116.8,30.2,116.2,30.2,115.5z"/>
								</g>
								<g>
									<path class="st17" d="M35.3,123.6c0-0.8,0.6-1.4,1.4-1.4c0.8,0,1.4,0.6,1.3,1.4c0,0.8-0.6,1.4-1.4,1.4
										C35.9,125,35.3,124.3,35.3,123.6z"/>
								</g>
								<g>
									<path class="st17" d="M40.9,107.6c0-0.8,0.6-1.4,1.4-1.4c0.8,0,1.4,0.6,1.3,1.4c0,0.8-0.6,1.4-1.4,1.4
										C41.5,109,40.9,108.4,40.9,107.6z"/>
								</g>
							</g>
							<g>
								<g>
									<path class="st17" d="M60.1,135.4c0-0.8,0.6-1.4,1.4-1.4c0.8,0,1.4,0.6,1.3,1.4c0,0.8-0.6,1.4-1.4,1.4
										C60.6,136.8,60,136.1,60.1,135.4z"/>
								</g>
								<g>
									<path class="st17" d="M54.8,135.3c0-0.8,0.6-1.4,1.4-1.4c0.8,0,1.4,0.6,1.3,1.4c0,0.8-0.6,1.4-1.4,1.4
										C55.4,136.7,54.8,136,54.8,135.3z"/>
								</g>
								<g>
									<path class="st17" d="M60.2,127.4c0-0.8,0.6-1.4,1.4-1.4c0.8,0,1.4,0.6,1.3,1.4c0,0.8-0.6,1.4-1.4,1.4
										C60.8,128.7,60.2,128.1,60.2,127.4z"/>
								</g>
								<g>
									<path class="st17" d="M54.9,127.3c0-0.8,0.6-1.4,1.4-1.4c0.8,0,1.4,0.6,1.3,1.4c0,0.8-0.6,1.4-1.4,1.4
										C55.5,128.6,54.9,128,54.9,127.3z"/>
								</g>
								<g>
									<path class="st17" d="M60.4,119.3c0-0.8,0.6-1.4,1.4-1.4c0.8,0,1.4,0.6,1.3,1.4c0,0.8-0.6,1.4-1.4,1.4
										C60.9,120.7,60.3,120.1,60.4,119.3z"/>
								</g>
							</g>
							<g>
								<g>
									<path class="st17" d="M32,166.6c0,0.8-0.6,1.4-1.4,1.4c-0.8,0-1.4-0.6-1.3-1.4c0-0.8,0.6-1.4,1.4-1.4
										C31.4,165.2,32,165.8,32,166.6z"/>
								</g>
								<g>
									<path class="st17" d="M31.8,174.6c0,0.8-0.6,1.4-1.4,1.4c-0.8,0-1.4-0.6-1.3-1.4c0-0.8,0.6-1.4,1.4-1.4
										C31.2,173.2,31.8,173.8,31.8,174.6z"/>
								</g>
								<g>
									<path class="st17" d="M37.2,170.7c0,0.8-0.6,1.4-1.4,1.4c-0.8,0-1.4-0.6-1.3-1.4c0-0.8,0.6-1.4,1.4-1.4
										C36.6,169.3,37.2,169.9,37.2,170.7z"/>
								</g>
								<g>
									<path class="st17" d="M41.3,166.7c0,0.8-0.6,1.4-1.4,1.4c-0.8,0-1.4-0.6-1.3-1.4c0-0.8,0.6-1.4,1.4-1.4
										C40.7,165.3,41.3,166,41.3,166.7z"/>
								</g>
								<g>
									<path class="st17" d="M31.7,182.6c0,0.8-0.6,1.4-1.4,1.4c-0.8,0-1.4-0.6-1.3-1.4c0-0.8,0.6-1.4,1.4-1.4
										C31.1,181.2,31.7,181.9,31.7,182.6z"/>
								</g>
							</g>
							<g>
								<g>
									<path class="st17" d="M56,178.4c0,0.8-0.6,1.4-1.4,1.4c-0.8,0-1.4-0.6-1.3-1.4c0-0.8,0.6-1.4,1.4-1.4
										C55.4,177,56,177.6,56,178.4z"/>
								</g>
								<g>
									<path class="st17" d="M55.8,186.4c0,0.8-0.6,1.4-1.4,1.4c-0.8,0-1.4-0.6-1.3-1.4c0-0.8,0.6-1.4,1.4-1.4
										C55.2,185,55.8,185.6,55.8,186.4z"/>
								</g>
								<g>
									<path class="st17" d="M61.1,186.5c0,0.8-0.6,1.4-1.4,1.4c-0.8,0-1.4-0.6-1.3-1.4c0-0.8,0.6-1.4,1.4-1.4
										C60.5,185.1,61.1,185.7,61.1,186.5z"/>
								</g>
								<g>
									<path class="st17" d="M66.4,186.6c0,0.8-0.6,1.4-1.4,1.4c-0.8,0-1.4-0.6-1.3-1.4c0-0.8,0.6-1.4,1.4-1.4
										C65.8,185.2,66.4,185.8,66.4,186.6z"/>
								</g>
								<g>
									<path class="st17" d="M55.7,194.4c0,0.8-0.6,1.4-1.4,1.4c-0.8,0-1.4-0.6-1.3-1.4c0-0.8,0.6-1.4,1.4-1.4
										C55.1,193,55.7,193.6,55.7,194.4z"/>
								</g>
							</g>
							<g>
								<g>
									<path class="st17" d="M98.2,192.8c0,0.8-0.6,1.4-1.4,1.4c-0.8,0-1.4-0.6-1.3-1.4c0-0.8,0.6-1.4,1.4-1.4
										C97.6,191.4,98.2,192,98.2,192.8z"/>
								</g>
								<g>
									<path class="st17" d="M98,200.8c0,0.8-0.6,1.4-1.4,1.4c-0.8,0-1.4-0.6-1.3-1.4c0-0.8,0.6-1.4,1.4-1.4
										C97.5,199.4,98.1,200,98,200.8z"/>
								</g>
								<g>
									<path class="st17" d="M108.6,201c0,0.8-0.6,1.4-1.4,1.4c-0.8,0-1.4-0.6-1.3-1.4c0-0.8,0.6-1.4,1.4-1.4
										C108,199.6,108.6,200.2,108.6,201z"/>
								</g>
								<g>
									<path class="st17" d="M103.5,192.9c0,0.8-0.6,1.4-1.4,1.4c-0.8,0-1.4-0.6-1.3-1.4c0-0.8,0.6-1.4,1.4-1.4
										C102.9,191.5,103.5,192.1,103.5,192.9z"/>
								</g>
								<g>
									<path class="st17" d="M97.9,208.8c0,0.8-0.6,1.4-1.4,1.4c-0.8,0-1.4-0.6-1.3-1.4c0-0.8,0.6-1.4,1.4-1.4
										C97.3,207.4,97.9,208.1,97.9,208.8z"/>
								</g>
							</g>
							<g>
								<g>
									<path class="st17" d="M80.2,186.8c0,0.8-0.6,1.4-1.4,1.4c-0.8,0-1.4-0.6-1.3-1.4c0-0.8,0.6-1.4,1.4-1.4
										C79.6,185.4,80.2,186,80.2,186.8z"/>
								</g>
								<g>
									<path class="st17" d="M85.5,186.9c0,0.8-0.6,1.4-1.4,1.4c-0.8,0-1.4-0.6-1.3-1.4c0-0.8,0.6-1.4,1.4-1.4
										C84.9,185.5,85.5,186.1,85.5,186.9z"/>
								</g>
								<g>
									<path class="st17" d="M80.1,194.8c0,0.8-0.6,1.4-1.4,1.4c-0.8,0-1.4-0.6-1.3-1.4c0-0.8,0.6-1.4,1.4-1.4
										C79.5,193.4,80.1,194,80.1,194.8z"/>
								</g>
								<g>
									<path class="st17" d="M85.4,194.9c0,0.8-0.6,1.4-1.4,1.4c-0.8,0-1.4-0.6-1.3-1.4c0-0.8,0.6-1.4,1.4-1.4
										C84.8,193.5,85.4,194.1,85.4,194.9z"/>
								</g>
								<g>
									<path class="st17" d="M79.9,202.8c0,0.8-0.6,1.4-1.4,1.4c-0.8,0-1.4-0.6-1.3-1.4c0-0.8,0.6-1.4,1.4-1.4
										C79.4,201.4,79.9,202,79.9,202.8z"/>
								</g>
							</g>
							<g>
								<g>
									<path class="st17" d="M82.4,173.4c0-0.8,0.6-1.4,1.4-1.4c0.8,0,1.4,0.6,1.3,1.4c0,0.8-0.6,1.4-1.4,1.4
										C83,174.8,82.4,174.2,82.4,173.4z"/>
								</g>
								<g>
									<path class="st17" d="M82.5,165.4c0-0.8,0.6-1.4,1.4-1.4c0.8,0,1.4,0.6,1.3,1.4c0,0.8-0.6,1.4-1.4,1.4
										C83.1,166.8,82.5,166.2,82.5,165.4z"/>
								</g>
								<g>
									<path class="st17" d="M77.2,169.3c0-0.8,0.6-1.4,1.4-1.4c0.8,0,1.4,0.6,1.3,1.4c0,0.8-0.6,1.4-1.4,1.4
										C77.8,170.7,77.2,170.1,77.2,169.3z"/>
								</g>
								<g>
									<path class="st17" d="M73.1,173.3c0-0.8,0.6-1.4,1.4-1.4c0.8,0,1.4,0.6,1.3,1.4c0,0.8-0.6,1.4-1.4,1.4
										C73.7,174.7,73.1,174,73.1,173.3z"/>
								</g>
								<g>
									<path class="st17" d="M82.7,157.4c0-0.8,0.6-1.4,1.4-1.4c0.8,0,1.4,0.6,1.3,1.4c0,0.8-0.6,1.4-1.4,1.4
										C83.3,158.8,82.7,158.1,82.7,157.4z"/>
								</g>
							</g>
							<g>
								<g>
									<path class="st17" d="M64.1,165.2c0-0.8,0.6-1.4,1.4-1.4c0.8,0,1.4,0.6,1.3,1.4c0,0.8-0.6,1.4-1.4,1.4
										C64.6,166.5,64,165.9,64.1,165.2z"/>
								</g>
								<g>
									<path class="st17" d="M64.2,157.1c0-0.8,0.6-1.4,1.4-1.4c0.8,0,1.4,0.6,1.3,1.4c0,0.8-0.6,1.4-1.4,1.4
										C64.8,158.5,64.2,157.9,64.2,157.1z"/>
								</g>
								<g>
									<path class="st17" d="M58.9,157c0-0.8,0.6-1.4,1.4-1.4c0.8,0,1.4,0.6,1.3,1.4c0,0.8-0.6,1.4-1.4,1.4
										C59.5,158.4,58.9,157.8,58.9,157z"/>
								</g>
								<g>
									<path class="st17" d="M53.6,156.9c0-0.8,0.6-1.4,1.4-1.4c0.8,0,1.4,0.6,1.3,1.4c0,0.8-0.6,1.4-1.4,1.4
										C54.2,158.3,53.6,157.7,53.6,156.9z"/>
								</g>
								<g>
									<path class="st17" d="M64.4,149.1c0-0.8,0.6-1.4,1.4-1.4c0.8,0,1.4,0.6,1.3,1.4c0,0.8-0.6,1.4-1.4,1.4
										C64.9,150.5,64.3,149.9,64.4,149.1z"/>
								</g>
							</g>
							<g>
								<g>
									<path class="st17" d="M106.3,179.6c0-0.8,0.6-1.4,1.4-1.4c0.8,0,1.4,0.6,1.3,1.4c0,0.8-0.6,1.4-1.4,1.4
										C106.9,181,106.3,180.3,106.3,179.6z"/>
								</g>
								<g>
									<path class="st17" d="M106.4,171.6c0-0.8,0.6-1.4,1.4-1.4c0.8,0,1.4,0.6,1.3,1.4c0,0.8-0.6,1.4-1.4,1.4
										C107,173,106.4,172.3,106.4,171.6z"/>
								</g>
								<g>
									<path class="st17" d="M95.9,171.4c0-0.8,0.6-1.4,1.4-1.4c0.8,0,1.4,0.6,1.3,1.4c0,0.8-0.6,1.4-1.4,1.4
										C96.4,172.8,95.8,172.1,95.9,171.4z"/>
								</g>
								<g>
									<path class="st17" d="M101,179.5c0-0.8,0.6-1.4,1.4-1.4c0.8,0,1.4,0.6,1.3,1.4c0,0.8-0.6,1.4-1.4,1.4
										C101.6,180.9,101,180.2,101,179.5z"/>
								</g>
								<g>
									<path class="st17" d="M106.6,163.5c0-0.8,0.6-1.4,1.4-1.4c0.8,0,1.4,0.6,1.3,1.4c0,0.8-0.6,1.4-1.4,1.4
										C107.2,164.9,106.6,164.3,106.6,163.5z"/>
								</g>
							</g>
							<g>
								<g>
									<path class="st17" d="M32.5,137.2c0,0.8-0.6,1.4-1.4,1.4c-0.8,0-1.4-0.6-1.3-1.4c0-0.8,0.6-1.4,1.4-1.4
										C31.9,135.8,32.5,136.4,32.5,137.2z"/>
								</g>
								<g>
									<path class="st17" d="M37.8,137.3c0,0.8-0.6,1.4-1.4,1.4c-0.8,0-1.4-0.6-1.3-1.4c0-0.8,0.6-1.4,1.4-1.4
										C37.2,135.9,37.8,136.5,37.8,137.3z"/>
								</g>
								<g>
									<path class="st17" d="M32.4,145.2c0,0.8-0.6,1.4-1.4,1.4c-0.8,0-1.4-0.6-1.3-1.4c0-0.8,0.6-1.4,1.4-1.4
										C31.8,143.8,32.4,144.4,32.4,145.2z"/>
								</g>
								<g>
									<path class="st17" d="M37.6,145.3c0,0.8-0.6,1.4-1.4,1.4c-0.8,0-1.4-0.6-1.3-1.4s0.6-1.4,1.4-1.4
										C37.1,143.9,37.7,144.5,37.6,145.3z"/>
								</g>
								<g>
									<path class="st17" d="M32.2,153.2c0,0.8-0.6,1.4-1.4,1.4c-0.8,0-1.4-0.6-1.3-1.4c0-0.8,0.6-1.4,1.4-1.4
										C31.6,151.8,32.2,152.5,32.2,153.2z"/>
								</g>
							</g>
							<g>
								<g>
									<path class="st17" d="M82.4,264.7c0-0.8,0.6-1.4,1.4-1.4c0.8,0,1.4,0.6,1.3,1.4c0,0.8-0.6,1.4-1.4,1.4
										C83,266.1,82.4,265.4,82.4,264.7z"/>
								</g>
								<g>
									<path class="st17" d="M82.5,256.6c0-0.8,0.6-1.4,1.4-1.4c0.8,0,1.4,0.6,1.3,1.4c0,0.8-0.6,1.4-1.4,1.4
										C83.1,258,82.5,257.4,82.5,256.6z"/>
								</g>
								<g>
									<path class="st17" d="M77.2,260.6c0-0.8,0.6-1.4,1.4-1.4c0.8,0,1.4,0.6,1.3,1.4c0,0.8-0.6,1.4-1.4,1.4
										C77.8,261.9,77.2,261.3,77.2,260.6z"/>
								</g>
								<g>
									<path class="st17" d="M73.1,264.5c0-0.8,0.6-1.4,1.4-1.4c0.8,0,1.4,0.6,1.3,1.4c0,0.8-0.6,1.4-1.4,1.4
										C73.7,265.9,73.1,265.3,73.1,264.5z"/>
								</g>
								<g>
									<path class="st17" d="M82.7,248.6c0-0.8,0.6-1.4,1.4-1.4c0.8,0,1.4,0.6,1.3,1.4c0,0.8-0.6,1.4-1.4,1.4
										C83.3,250,82.7,249.4,82.7,248.6z"/>
								</g>
							</g>
							<g>
								<g>
									<path class="st17" d="M64.1,256.4c0-0.8,0.6-1.4,1.4-1.4c0.8,0,1.4,0.6,1.3,1.4c0,0.8-0.6,1.4-1.4,1.4
										C64.6,257.8,64,257.2,64.1,256.4z"/>
								</g>
								<g>
									<path class="st17" d="M64.2,248.4c0-0.8,0.6-1.4,1.4-1.4c0.8,0,1.4,0.6,1.3,1.4c0,0.8-0.6,1.4-1.4,1.4
										C64.8,249.8,64.2,249.2,64.2,248.4z"/>
								</g>
								<g>
									<path class="st17" d="M58.9,248.3c0-0.8,0.6-1.4,1.4-1.4c0.8,0,1.4,0.6,1.3,1.4c0,0.8-0.6,1.4-1.4,1.4
										C59.5,249.7,58.9,249.1,58.9,248.3z"/>
								</g>
								<g>
									<path class="st17" d="M53.6,248.2c0-0.8,0.6-1.4,1.4-1.4c0.8,0,1.4,0.6,1.3,1.4c0,0.8-0.6,1.4-1.4,1.4
										C54.2,249.6,53.6,249,53.6,248.2z"/>
								</g>
								<g>
									<path class="st17" d="M64.4,240.4c0-0.8,0.6-1.4,1.4-1.4c0.8,0,1.4,0.6,1.3,1.4c0,0.8-0.6,1.4-1.4,1.4
										C64.9,241.8,64.3,241.1,64.4,240.4z"/>
								</g>
							</g>
							<g>
								<g>
									<path class="st17" d="M106.3,270.8c0-0.8,0.6-1.4,1.4-1.4c0.8,0,1.4,0.6,1.3,1.4c0,0.8-0.6,1.4-1.4,1.4
										C106.9,272.2,106.3,271.6,106.3,270.8z"/>
								</g>
								<g>
									<path class="st17" d="M106.4,262.8c0-0.8,0.6-1.4,1.4-1.4c0.8,0,1.4,0.6,1.3,1.4c0,0.8-0.6,1.4-1.4,1.4
										C107,264.2,106.4,263.6,106.4,262.8z"/>
								</g>
								<g>
									<path class="st17" d="M95.9,262.6c0-0.8,0.6-1.4,1.4-1.4c0.8,0,1.4,0.6,1.3,1.4c0,0.8-0.6,1.4-1.4,1.4
										C96.4,264,95.8,263.4,95.9,262.6z"/>
								</g>
								<g>
									<path class="st17" d="M101,270.7c0-0.8,0.6-1.4,1.4-1.4c0.8,0,1.4,0.6,1.3,1.4c0,0.8-0.6,1.4-1.4,1.4
										C101.6,272.1,101,271.5,101,270.7z"/>
								</g>
								<g>
									<path class="st17" d="M106.6,254.8c0-0.8,0.6-1.4,1.4-1.4c0.8,0,1.4,0.6,1.3,1.4c0,0.8-0.6,1.4-1.4,1.4
										C107.2,256.2,106.6,255.6,106.6,254.8z"/>
								</g>
							</g>
							<g>
								<g>
									<path class="st17" d="M32.5,228.4c0,0.8-0.6,1.4-1.4,1.4c-0.8,0-1.4-0.6-1.3-1.4c0-0.8,0.6-1.4,1.4-1.4
										C31.9,227.1,32.5,227.7,32.5,228.4z"/>
								</g>
								<g>
									<path class="st17" d="M37.8,228.5c0,0.8-0.6,1.4-1.4,1.4c-0.8,0-1.4-0.6-1.3-1.4c0-0.8,0.6-1.4,1.4-1.4
										C37.2,227.2,37.8,227.8,37.8,228.5z"/>
								</g>
								<g>
									<path class="st17" d="M32.4,236.5c0,0.8-0.6,1.4-1.4,1.4c-0.8,0-1.4-0.6-1.3-1.4c0-0.8,0.6-1.4,1.4-1.4
										C31.8,235.1,32.4,235.7,32.4,236.5z"/>
								</g>
								<g>
									<path class="st17" d="M37.6,236.6c0,0.8-0.6,1.4-1.4,1.4c-0.8,0-1.4-0.6-1.3-1.4c0-0.8,0.6-1.4,1.4-1.4
										C37.1,235.2,37.7,235.8,37.6,236.6z"/>
								</g>
								<g>
									<path class="st17" d="M32.2,244.5c0,0.8-0.6,1.4-1.4,1.4c-0.8,0-1.4-0.6-1.3-1.4c0-0.8,0.6-1.4,1.4-1.4
										C31.6,243.1,32.2,243.7,32.2,244.5z"/>
								</g>
							</g>
						</g>
						<g>
							<path class="st11" d="M16.1,73.3c-0.5,0-1.5-0.1-2.8,0v5.5c7.5,0.7,12.6-3.4,12.6-3.4C21.7,73.9,18.3,73.4,16.1,73.3z"/>
						</g>
						<g>
							<g>
								<polygon class="st15" points="134.8,283.7 138.3,283.7 136.8,108.7 21.6,77.6 134.8,109.7 								"/>
							</g>
						</g>
					</g>
					<g>
						<g>
							<path class="st18" d="M264.3,159.8c0.4-0.1,0.8-0.2,1.2-0.3c0.5-0.3,1-0.8,1.1-1.4c0.1-0.8-0.5-1.5-1.2-1.8
								c-0.7-0.3-1.5-0.3-2.2-0.3c-2.6,0-5.1-0.1-7.7-0.1c1.6-0.9,3.3-1.5,5.1-2.2c0.6-0.2,1.2-0.5,1.7-0.9c0.5-0.5,0.8-1.2,0.5-1.8
								c-0.2-0.6-0.8-0.9-1.4-1c-0.6-0.1-1.2,0.1-1.8,0.2c-3.2,0.9-6.4,1.8-9.6,2.9c0.1-0.1,0.1-0.2,0.2-0.3
								c0.4-0.4,0.8-0.7,1.2-1.1c0.7-0.7,1.3-1.4,1.9-2.1c0.4-0.5,0.8-1.1,0.7-1.8c-0.1-0.8-1-1.3-1.8-1.3c-0.8,0-1.5,0.4-2.2,0.9
								c-1.6,1.1-3,2.4-4.5,3.5c-0.7,0.5-1.5,1.2-2.4,1.4c-1.2,0.4-2.4,0.6-3.7,0.7c-0.1,4.6-0.2,9.2-0.3,13.9l0,0.1
								c0.7,0,1.5,0.3,2.2,0.5c1.7,0.4,3.4,0.6,5.1,0.4c0.9-0.1,1.7-0.3,2.5-0.5c0.4-0.1,0.8-0.3,1.2-0.4c0.2-0.1,0.4-0.2,0.6-0.3
								c0.1,0,0.4-0.3,0.5-0.3c2.3,0.8,4.6,1.6,7,2.3c0.5,0.2,1,0.3,1.5,0.3c0.5-0.1,1-0.4,1.1-0.9c0.1-0.7-0.7-1.3-1.3-1.6
								c-1.4-0.7-2.8-1.4-4.2-2.1c2.3-0.1,4.5-0.4,6.7-0.8c0.7-0.1,1.4-0.3,2-0.6c0.6-0.3,1.1-0.9,1.2-1.6
								C265.4,160.7,265,160,264.3,159.8z"/>
						</g>
						<g>
							<path class="st19" d="M209.5,115.4c-0.2,0.4,0,0.8,0.3,1.1c0.3,0.3,0.7,0.5,1,0.7c1.4,0.7,2.6,1.9,3.4,3.3
								c0.1,0.2,0.4,0.4,0.7,0.3c0.3-0.1,0.5-0.4,0.6-0.7c0.1-0.3,0-0.6-0.1-0.9c-0.6-1.8-2.3-3-4-3.9c-0.3-0.2-0.6-0.3-1-0.3
								C210,114.9,209.6,115.1,209.5,115.4z"/>
						</g>
						<g>
							<path class="st20" d="M187.7,112.9c-1.3,0-2.4,1.1-2.4,2.5c0,1.4,1.1,2.5,2.4,2.5c1.3,0,2.4-1.1,2.4-2.5
								C190.2,114,189.1,112.9,187.7,112.9z"/>
						</g>
						<g>
							<path class="st20" d="M205,123.6c-1.3,0-2.4,1.1-2.4,2.5c0,1.4,1.1,2.5,2.4,2.5c1.3,0,2.4-1.1,2.4-2.5
								C207.4,124.7,206.3,123.6,205,123.6z"/>
						</g>
						<g>
							<path class="st18" d="M205,118.2c5,0,9.1,4.1,9.1,9.1c0,1.5-0.4,3-1.1,4.3c-1.5,2.9-4.6,4.9-8.1,4.9c-5,0-9.1-4.1-9.1-9.1
								c0-2.4,0.9-4.5,2.4-6.1C199.9,119.3,202.3,118.2,205,118.2z M205,128.5c1.3,0,2.4-1.1,2.4-2.5c0-1.4-1.1-2.5-2.4-2.5
								c-1.3,0-2.4,1.1-2.4,2.5C202.6,127.4,203.7,128.5,205,128.5z"/>
						</g>
						<g>
							<path class="st20" d="M219.3,137.2c1.2-0.2,2.4,0.1,3.3,0.8c6.4-0.9,12.3-5.3,14.8-11.4c0.7-1.7,1.2-3.6,1.3-5.5
								c0.3-2.9-0.2-6-1.2-8.7c-0.5-1.4-1.2-2.7-2-3.9c-0.2-0.3-0.5-0.6-0.7-0.9c-0.2-0.3-0.3-0.7-0.4-1c-0.2-0.8-0.1-1.7-0.2-2.5
								c-0.1-1.1-0.2-2.2-0.4-3.3c-0.6-3-1.8-5.8-3.4-8.3c-1.6-2.6-3.6-4.9-5.9-6.8c-6.5-5.3-14.9-7.8-22.7-7.8
								c-3.4-0.5-6.8-1.7-9.8-3.5c-2-1.2-4-2.6-6.3-2.7c-2.8-0.1-5.6,2.1-6.1,4.9c-0.1,0.6-0.1,1.3,0,1.9c0.1,0.3,0.2,0.6,0.3,1
								c0.3,1.1-0.7,0.8-1.4,0.9c-0.9,0.1-1.9,0.5-2.7,1c-2.3,1.5-3.4,4.5-2.7,7.2c0.4,1.4,1.2,2.7,2.4,3.6c0.6,0.4,1.2,0.6,1.1,1.5
								c-0.1,0.6-0.7,1.1-1,1.6c-0.5,0.9-0.9,1.9-1.3,2.8c-0.7,2-1,4.1-0.9,6.1c0.1,0,0.1,0,0.2,0c0.2,0,0.5,0.1,0.7,0.1
								c1.9,0.1,3.7-0.1,5.5-0.8c0.9-0.3,1.7-0.7,2.5-1.2c0.4-0.2,0.7-0.5,1.1-0.7c0.3-0.2,0.8-0.1,1.1,0.1c0.3,0.2,0.7,0.3,1,0.5
								c1.6,0.7,3.2,1.2,4.9,1.4c1.4,0.2,2.9,0,4,1.1c3.5,3.7,8,6.3,12.9,7.5c1.9,0.5,3.9,0.7,5.9,0.7c1.7,0,3.4-0.1,5-0.5
								c0.8-0.2,1.6-0.4,2.5-0.6c0.2-0.1,0.7-0.3,0.8,0.1c0.1,0.3-0.1,0.6-0.3,0.8c-0.2,0.3-0.3,0.6-0.5,0.9
								c-0.3,0.6-0.6,1.2-0.9,1.9c-0.5,1.3-1,2.6-1.3,3.9c-0.8,3-1.2,6-1.1,9.1c0.1,2.9,0.5,5.7,1.4,8.4c0,0.1,0.1,0.3,0.1,0.4
								L219.3,137.2z"/>
						</g>
						<g>
							<path class="st21" d="M205.7,283.7c-0.4-0.5-0.9-0.8-1.4-1.1c-2-1.2-4.1-2.5-6.1-3.7l-0.1,0c-5.5,1-11.1,1.7-15.9,2.2
								c-0.2,0.9-0.2,1.8-0.2,2.7H205.7z"/>
						</g>
						<g>
							<path class="st22" d="M182,281c4.8-0.5,10.4-1.1,15.9-2.2c-4.6-23.8-9.1-47.9-12.1-70.3v0c-11-0.8-23.7-3.4-34.2-6.9v35.5
								c2.6-5.2,5.1-10.4,7.7-15.6c1.6-0.2,3.2-0.1,4.7,0C169.4,241.4,175.4,261.3,182,281C181.9,281,182,281,182,281z"/>
						</g>
						<g>
							<path class="st18" d="M145.6,126.8c0.5-0.2,1.1-0.1,1.6-0.1c-0.5-0.2-1-0.4-1.5-0.7c-0.8-0.3-1.6-0.9-1.6-1.7
								c0-0.6,0.6-1.1,1.1-1.2c0.6-0.1,1.2,0,1.8,0.1c0.7,0.1,1.4,0.3,2.1,0.4l0-0.1c-0.6-0.2-1.2-0.4-1.7-0.7
								c-0.5-0.4-0.8-1-0.7-1.6c0.1-0.6,0.6-1,1.2-1.2c0.6-0.2,1.2-0.1,1.8,0c0.6,0.1,1.3,0.2,1.9,0.4c0.7,0.2,1.4,0.4,2.1,0.6
								c0.8,0.3,1.5,0.6,2.1,1.1c0.6,0.5,1,1.3,1,2.1c-0.1,0.9-0.8,1.7-1.7,1.6l0,0c0.2,0.1,0.4,0.3,0.6,0.5
								c0.5,0.4,0.5,1.3,0.1,1.8c-0.2,0.4-0.6,0.6-1,0.7c0,0,0,0.1,0.1,0.1c0.4,0.3,0.7,0.8,0.7,1.3c0,0.5-0.3,1-0.7,1.2
								c-0.1,0.1-0.2,0.1-0.3,0.1l0,0.1c0.7,0.4,0.8,1.6,0.2,2.2c-0.5,0.7-1.4,0.9-2.2,1.1c-0.3,0.1-0.6,0.1-0.9,0.1
								c-1.4,0.1-2.9,0-4.3-0.5c-0.4-0.1-0.9-0.3-1.1-0.7c-0.3-0.5-0.1-1.3,0.4-1.7c0.4-0.4,1.1-0.6,1.7-0.7c0.5-0.1,1-0.2,1.4-0.3
								c-1.1-0.3-2.2-0.6-3.3-1c-0.5-0.2-1-0.4-1.4-0.7c-0.4-0.4-0.7-0.9-0.6-1.4C144.4,127.4,145,126.9,145.6,126.8z"/>
						</g>
						<g>
							<path class="st23" d="M175.1,145c-0.2-0.5-0.4-0.9-0.6-1.4c0-0.1,0-0.2-0.1-0.2l3.6-4.8c3.1,3,6.7,5.3,10.8,6.6
								c-0.1,0.3-0.3,0.7-0.4,1C183.9,146.5,179.4,146.1,175.1,145z"/>
						</g>
						<g>
							<path class="st18" d="M188.3,146.1c-0.3,0.7-0.7,1.5-1,2.2l0.1,0.3c-2.4,1.2-5.4,1.5-7.9,0.5c-1.9-0.8-3.5-2.3-4.5-4.1
								C179.4,146.1,183.9,146.5,188.3,146.1z"/>
						</g>
						<g>
							<path class="st24" d="M236.6,153.3c1-0.1,2-0.1,2.9-0.2c-0.1,4.6-0.2,9.2-0.3,13.9l0,0.1c-0.2,0-0.3,0-0.5,0
								c-0.9,0.1-1.9,0.2-2.8,0.4c0-4.7,0-9.4,0.1-14.1C236.2,153.3,236.4,153.3,236.6,153.3z"/>
						</g>
						<g>
							<path class="st25" d="M151.7,136.1c6.6,2.3,16.1,5.2,22.7,7.5l0.1,0c0.8,2.5,2.7,4.6,5.1,5.5c2.5,1,5.5,0.7,7.9-0.5
								c0,0,0,0,0,0c0.4,0.1,0.8,0.2,1.2,0.3c4.5,1.1,9,2,13.5,2.7c4.5,0.7,9.1,1.2,13.7,1.6c4.6,0.3,9.2,0.5,13.8,0.4
								c2.1,0,4.2-0.1,6.3-0.2c0,4.7,0,9.4-0.1,14.1c-0.1,0-0.1,0-0.2,0c-2,0.3-4,0.5-6,0.7c-4,0.4-8,0.8-11.9,1.1
								c-4,0.3-8,0.5-12,0.7c-2.6,0.1-5.3,0.2-7.9,0.2c-0.5,0-1,0-1.4,0c-0.4,0-0.8-0.1-0.9,0.4c-3.2,12.6-6.5,25.2-9.6,37.9
								c-0.1,0-0.1,0-0.2,0c-11-0.8-23.7-3.4-34.2-6.9L151.7,136.1L151.7,136.1z"/>
						</g>
						<g>
							<path class="st18" d="M192.8,116.7c0.3-1,0.5-2,0.5-3.1c0-5-4.1-9.1-9.1-9.1c-2.7,0-5.1,1.2-6.8,3c-0.1,0.1-0.2,0.2-0.3,0.3
								c-0.2,0.2-0.3,0.4-0.5,0.7c-0.2,0.3-0.4,0.7-0.6,1.1c-0.1,0.2-0.2,0.5-0.3,0.8c-0.2,0.4-0.3,0.8-0.4,1.2
								c0,0.1-0.1,0.3-0.1,0.4c-0.1,0.4-0.1,0.8-0.2,1.3c0,0.1,0,0.3,0,0.4c0,0.8,0.1,1.6,0.3,2.4c0.3,0.2,0.6,0.4,0.8,0.7
								c1.2,1.1,1.9,2.6,2.5,4.1c0,0,0,0.1,0,0.1c1.5,1.2,3.4,1.8,5.5,1.8C188.1,122.7,191.5,120.2,192.8,116.7z M190.2,115.4
								c0,1.4-1.1,2.5-2.4,2.5c-1.3,0-2.4-1.1-2.4-2.5c0-1.4,1.1-2.5,2.4-2.5C189.1,112.9,190.2,114,190.2,115.4z"/>
						</g>
						<g>
							<path class="st26" d="M178.7,120.8C178.7,120.8,178.7,120.9,178.7,120.8c-1.5-1.1-2.7-2.8-3.3-4.8c0.3,0.2,0.6,0.4,0.8,0.7
								C177.4,117.8,178.1,119.3,178.7,120.8z"/>
						</g>
						<g>
							<path class="st18" d="M224.7,140.6c-0.3-1.1-1.1-2-2-2.7c-1-0.7-2.2-1-3.3-0.8l-0.1,0c0-0.1-0.1-0.3-0.1-0.4
								c-0.9-2.7-1.3-5.6-1.4-8.4c-0.1-3.1,0.3-6.1,1.1-9.1c0.4-1.3,0.8-2.6,1.3-3.9c0.3-0.6,0.6-1.3,0.9-1.9
								c0.2-0.3,0.3-0.6,0.5-0.9c0.1-0.2,0.4-0.5,0.3-0.8c-0.2-0.3-0.6-0.1-0.8-0.1c-0.8,0.2-1.6,0.4-2.5,0.6
								c-1.7,0.3-3.3,0.5-5,0.5c-2,0-4-0.2-5.9-0.7c-4.9-1.2-9.4-3.8-12.9-7.5c-1.1-1.1-2.6-0.9-4-1.1c-1.7-0.2-3.3-0.7-4.9-1.4
								c-0.3-0.2-0.7-0.3-1-0.5c-0.3-0.2-0.8-0.3-1.1-0.1c-0.4,0.2-0.8,0.5-1.1,0.7c-0.8,0.5-1.6,0.9-2.5,1.2
								c-1.8,0.6-3.6,0.9-5.5,0.8c-0.2,0-0.5,0-0.7-0.1c-0.1,0.1-0.1,0.2-0.2,0.3c-0.1,0.1-0.1,0.2-0.2,0.3
								c-0.6-1.6-1.9-2.9-3.5-3.3c-2-0.6-4.4,0.1-5.9,1.7c-1.5,1.6-2.1,3.9-1.7,6c0.4,2.1,1.7,4,3.5,5.2c1.1,0.8,2.5,1.2,3.8,1.2
								c0,0.4-0.1,0.8-0.1,1.1c-0.3,3.5,0.1,7,1.1,10.3c1,3.3,2.7,6.4,4.9,9c0.8,0.9,1.6,1.8,2.4,2.7c3.1,3,6.7,5.3,10.8,6.6
								c0,0,0.1,0,0.1,0c0.3,0.1,0.7,0.2,1,0.3c6.4,1.9,13.4,1.5,19.7-0.9c0.6-0.2,1.2-0.5,1.8-0.7c1.1,1.8,2.7,3.3,4.7,4
								c2.2,0.7,4.8,0.4,6.6-1C224.5,145.4,225.4,142.8,224.7,140.6z M184.2,122.7c-2.1,0-4-0.7-5.5-1.8c-1.6-1.2-2.8-2.9-3.3-4.9
								c-0.2-0.8-0.3-1.6-0.3-2.4c0-0.1,0-0.3,0-0.4c0-0.4,0.1-0.9,0.2-1.3c0-0.1,0.1-0.3,0.1-0.4c0.1-0.4,0.2-0.8,0.4-1.2
								c0.1-0.3,0.2-0.5,0.3-0.8c0.2-0.4,0.4-0.7,0.6-1.1c0.2-0.2,0.3-0.4,0.5-0.7c0.1-0.1,0.2-0.2,0.3-0.3c1.7-1.8,4.1-3,6.8-3
								c5,0,9.1,4.1,9.1,9.1c0,1.1-0.2,2.1-0.5,3.1C191.5,120.2,188.1,122.7,184.2,122.7z M205,136.4c-5,0-9.1-4.1-9.1-9.1
								c0-2.4,0.9-4.5,2.4-6.1c1.7-1.8,4.1-3,6.7-3c5,0,9.1,4.1,9.1,9.1c0,1.5-0.4,3-1.1,4.3C211.5,134.4,208.5,136.4,205,136.4z"/>
						</g>
						<g>
							<path class="st18" d="M176.7,108.5c0.2-0.2,0.3-0.4,0.5-0.7C177,108,176.8,108.2,176.7,108.5z"/>
						</g>
						<g>
							<path class="st18" d="M176,109.5c0.2-0.4,0.4-0.7,0.6-1.1C176.4,108.8,176.2,109.2,176,109.5z"/>
						</g>
						<g>
							<g>
								<path class="st27" d="M247.3,159.6c0.1,0,0.2,0,0.3-0.1c0.6-0.4,1.2-1,1.6-1.6c0.7-1,1.2-2.3,1.2-3.5c0-0.2,0-0.3,0-0.4
									c0-0.1,0-0.2,0-0.3c0,0,0-0.1,0.1-0.2c0.2-0.2,0.1-0.6-0.1-0.7c-0.2-0.2-0.5-0.1-0.7,0.2c-0.1,0.2-0.2,0.4-0.2,0.6
									c0,0.2,0,0.4,0,0.5c0,0.1,0,0.2,0,0.3c-0.1,1.1-0.4,2.1-1,3c-0.4,0.5-0.8,1-1.3,1.3c-0.2,0.2-0.3,0.5-0.1,0.7
									C247,159.5,247.1,159.6,247.3,159.6z"/>
							</g>
						</g>
						<g>
							<g>
								<path class="st27" d="M255.8,161.3C255.8,161.3,255.8,161.3,255.8,161.3l8-0.9c0.3,0,0.6-0.1,0.9-0.1
									c0.3-0.1,0.5-0.3,0.4-0.6s-0.3-0.5-0.6-0.4c-0.3,0.1-0.6,0.1-0.9,0.1l-8,0.9c-0.3,0-0.5,0.3-0.4,0.6
									C255.3,161.1,255.5,161.3,255.8,161.3z"/>
							</g>
						</g>
						<g>
							<g>
								<path class="st27" d="M153.9,129.5c0.1,0,0.1,0,0.2,0c0.2,0,0.4,0,0.6-0.1c0.3-0.1,0.4-0.3,0.4-0.6
									c-0.1-0.3-0.3-0.4-0.6-0.4c-0.1,0-0.2,0.1-0.4,0.1c-0.6,0-1.1-0.1-1.7-0.3c-1.8-0.6-3.6-1.3-5.2-2c-0.3-0.1-0.6,0-0.7,0.3
									c-0.1,0.3,0,0.6,0.3,0.7c1.6,0.7,3.4,1.5,5.3,2C152.7,129.3,153.3,129.5,153.9,129.5z"/>
							</g>
						</g>
						<g>
							<g>
								<path class="st27" d="M155.2,126.5c0.2,0,0.3-0.1,0.4-0.2c0.2-0.2,0.1-0.5-0.1-0.7c-2-1.5-4.5-2.2-6.9-2.6
									c-0.3-0.1-0.5,0.1-0.6,0.4c-0.1,0.3,0.1,0.5,0.4,0.6c2.3,0.5,4.6,1.1,6.5,2.5C154.9,126.4,155.1,126.5,155.2,126.5z"/>
							</g>
						</g>
						<g>
							<g>
								<path class="st27" d="M153.7,132.2c0.4,0,0.9-0.1,1.3-0.3c0.2-0.1,0.3-0.5,0.2-0.7c-0.1-0.2-0.4-0.3-0.7-0.2
									c-0.3,0.2-0.8,0.2-1.3,0.1c-1.4-0.1-2.8-0.3-4.2-0.7c-0.3-0.1-0.5,0.1-0.6,0.4c-0.1,0.3,0.1,0.6,0.4,0.6
									c1.4,0.4,2.9,0.6,4.4,0.7C153.3,132.2,153.5,132.2,153.7,132.2z"/>
							</g>
						</g>
						<g>
							<g>
								<path class="st27" d="M170.2,109.7c0.2,0,0.4-0.1,0.5-0.3c0.5-1.2,0.4-2.7-0.3-3.9c-0.7-1.2-1.9-2-3.2-2.1
									c-0.3,0-0.5,0.2-0.6,0.5c0,0.3,0.2,0.5,0.5,0.6c1,0.1,2,0.7,2.5,1.6c0.5,0.9,0.6,2,0.2,3c-0.1,0.3,0,0.6,0.3,0.7
									C170.1,109.7,170.1,109.7,170.2,109.7z"/>
							</g>
						</g>
						<g>
							<g>
								<path class="st27" d="M222,143.9C222,143.9,222,143.9,222,143.9c0.4,0,0.5-0.3,0.5-0.6c-0.2-1.2-1.1-2.3-2.3-2.7
									c-1.2-0.4-2.6-0.1-3.5,0.8c-0.2,0.2-0.2,0.5,0,0.7c0.2,0.2,0.5,0.2,0.7,0c0.6-0.6,1.6-0.8,2.4-0.6c0.8,0.3,1.5,1.1,1.6,1.9
									C221.5,143.7,221.7,143.9,222,143.9z"/>
							</g>
						</g>
						<g>
							<g>
								<path class="st28" d="M195.4,127.3c0-5.3,4.3-9.6,9.6-9.6c5.3,0,9.6,4.3,9.6,9.6c0,5.3-4.3,9.6-9.6,9.6
									C199.7,136.9,195.4,132.6,195.4,127.3z M196.4,127.3c0,4.7,3.9,8.6,8.6,8.6c4.7,0,8.6-3.9,8.6-8.6s-3.9-8.6-8.6-8.6
									C200.3,118.7,196.4,122.5,196.4,127.3z"/>
							</g>
						</g>
						<g>
							<g>
								<path class="st28" d="M174.6,113.6c0-5.3,4.3-9.6,9.6-9.6c5.3,0,9.6,4.3,9.6,9.6c0,5.3-4.3,9.6-9.6,9.6
									C178.9,123.2,174.6,118.9,174.6,113.6z M175.6,113.6c0,4.7,3.9,8.6,8.6,8.6c4.7,0,8.6-3.9,8.6-8.6s-3.9-8.6-8.6-8.6
									C179.4,105,175.6,108.9,175.6,113.6z"/>
							</g>
						</g>
						<g>
							<g>
								<path class="st28" d="M198.2,121.5c0.1,0,0.1,0,0.2,0c0.3-0.1,0.4-0.4,0.3-0.7c-0.9-2.4-3.2-4.2-5.8-4.6
									c-0.3,0-0.5,0.1-0.6,0.4c0,0.3,0.1,0.5,0.4,0.6c2.2,0.3,4.2,1.9,5,4C197.8,121.4,197.9,121.5,198.2,121.5z"/>
							</g>
						</g>
						<g>
							<g>
								<path class="st28" d="M219.3,137.4c0.1,0,0.3-0.1,0.4-0.2c0.2-0.2,0.2-0.5-0.1-0.7l-6.1-5.4c-0.2-0.2-0.5-0.2-0.7,0.1
									c-0.2,0.2-0.2,0.5,0.1,0.7l6.1,5.4C219,137.4,219.1,137.4,219.3,137.4z"/>
							</g>
						</g>
						<g>
							<g>
								<path class="st28" d="M177.5,108.1c0.1,0,0.3-0.1,0.4-0.2c0.2-0.2,0.1-0.5-0.1-0.7l-4.1-3.3c-0.2-0.2-0.5-0.1-0.7,0.1
									c-0.2,0.2-0.1,0.5,0.1,0.7l4.1,3.3C177.3,108.1,177.4,108.1,177.5,108.1z"/>
							</g>
						</g>
						<g>
							<g>
								<path class="st27" d="M189.4,126.5c0.1,0,0.3-0.1,0.4-0.2c0.2-0.2,0.2-0.5,0-0.7c-0.5-0.5-0.8-1.3-0.6-2
									c0.2-0.7,0.8-1.3,1.5-1.5c0.7-0.2,1.5,0.1,2,0.6c0.2,0.2,0.5,0.2,0.7,0c0.2-0.2,0.2-0.5,0-0.7c-0.7-0.8-1.9-1.2-3-0.9
									c-1.1,0.3-2,1.2-2.2,2.3c-0.3,1.1,0.1,2.3,0.9,3C189.1,126.5,189.3,126.5,189.4,126.5z"/>
							</g>
						</g>
						<g>
							<g>
								<path class="st27" d="M191.8,131.8c0.7,0,1.3-0.1,2-0.3c0.3-0.1,0.4-0.4,0.3-0.6c-0.1-0.3-0.4-0.4-0.6-0.3
									c-1.8,0.6-3.9,0.2-5.3-1c-1.4-1.2-2.2-3.2-2-5.1c0-0.3-0.2-0.5-0.4-0.6c-0.3,0-0.5,0.2-0.6,0.4c-0.3,2.2,0.7,4.6,2.4,6
									C188.7,131.2,190.3,131.8,191.8,131.8z"/>
							</g>
						</g>
						<g>
							<g>
								<path class="st29" d="M179.5,164.2c0.2,0,0.4-0.1,0.5-0.3c0.1-0.3-0.1-0.6-0.3-0.7l-2.9-1l3.6-13c0.1-0.3-0.1-0.6-0.3-0.6
									c-0.3-0.1-0.5,0.1-0.6,0.4l-3.8,13.5c-0.1,0.3,0.1,0.5,0.3,0.6l3.3,1.1C179.4,164.1,179.4,164.2,179.5,164.2z"/>
							</g>
						</g>
						<g>
							<g>
								<path class="st16" d="M180,154.1c0,0.5,0.4,0.9,0.9,0.9c0.5,0,0.9-0.4,0.9-0.9c0-0.5-0.4-0.9-0.9-0.9
									C180.4,153.2,180,153.6,180,154.1z"/>
							</g>
						</g>
						<g>
							<g>
								<path class="st16" d="M178.8,158.3c0,0.5,0.4,0.9,0.9,0.9c0.5,0,0.9-0.4,0.9-0.9c0-0.5-0.4-0.9-0.9-0.9
									C179.2,157.4,178.8,157.8,178.8,158.3z"/>
							</g>
						</g>
						<g>
							<g>
								<path class="st30" d="M153,221.8h6.5c0.3,0,0.5-0.2,0.5-0.5c0-0.3-0.2-0.5-0.5-0.5H153c-0.3,0-0.5,0.2-0.5,0.5
									C152.5,221.5,152.7,221.8,153,221.8z"/>
							</g>
						</g>
						<g>
							<g>
								<path class="st30" d="M187,216.9c0.2,0,0.4-0.1,0.5-0.3c0.1-0.3,0-0.6-0.3-0.7c-3.6-1.5-6.5-4.6-7.8-8.3
									c-0.1-0.3-0.4-0.4-0.6-0.3c-0.3,0.1-0.4,0.4-0.3,0.7c1.4,4,4.5,7.3,8.4,8.9C186.9,216.9,186.9,216.9,187,216.9z"/>
							</g>
						</g>
						<g>
							<g>
								<path class="st30" d="M160.6,221.6c0.2,0,0.4-0.2,0.5-0.4l3.4-16.1c0.1-0.3-0.1-0.5-0.4-0.6c-0.3-0.1-0.5,0.1-0.6,0.4
									l-3.4,16.1c-0.1,0.3,0.1,0.5,0.4,0.6C160.6,221.6,160.6,221.6,160.6,221.6z"/>
							</g>
						</g>
						<g>
							<g>
								<path class="st30" d="M161.8,214.7c0.1,0,0.3,0,0.3-0.1c0.2-0.2,0.2-0.5,0-0.7c-2.3-2.5-3-6.4-1.6-9.5
									c0.1-0.3,0-0.6-0.3-0.7c-0.3-0.1-0.6,0-0.7,0.3c-1.5,3.5-0.8,7.9,1.8,10.6C161.6,214.7,161.7,214.7,161.8,214.7z"/>
							</g>
						</g>
						<g>
							<g>
								<path class="st30" d="M180.5,276.7C180.5,276.7,180.5,276.7,180.5,276.7l16.7-2.2c0.3,0,0.5-0.3,0.4-0.6
									c0-0.3-0.3-0.5-0.6-0.4l-16.7,2.2c-0.3,0-0.5,0.3-0.4,0.6C180,276.6,180.3,276.7,180.5,276.7z"/>
							</g>
						</g>
					</g>
				</g>
			</g>
		</g>
		<g class="st2">
			
				<linearGradient id="SVGID_14_" gradientUnits="userSpaceOnUse" x1="213.2512" y1="-1604.9543" x2="280.9717" y2="-1604.9543" gradientTransform="matrix(0.9213 0.3889 -0.3889 0.9213 -727.2651 1436.0417)">
				<stop  offset="0" style="stop-color:#AF4090"/>
				<stop  offset="1" style="stop-color:#61388E"/>
			</linearGradient>
			<path class="st31" d="M163.8,46.9c3.3-3.3,1.7-13.2-8.6-20c-9.7-6.8-28.1-10.6-44.8-0.9C93.2,34.8,86.5,52.3,87,64.2
				c0.2,12.4,7.8,19.1,12.3,18c9.6-3.6,17.8-18.6,29.4-22.9C138.5,51.9,155.5,53.1,163.8,46.9z"/>
		</g>
		<linearGradient id="SVGID_15_" gradientUnits="userSpaceOnUse" x1="249.3579" y1="123.2715" x2="277.1594" y2="123.2715">
			<stop  offset="0" style="stop-color:#AF4090"/>
			<stop  offset="1" style="stop-color:#61388E"/>
		</linearGradient>
		<path class="st32" d="M277.2,123.3c0-7.7-6.2-13.9-13.9-13.9c-7.7,0-13.9,6.2-13.9,13.9c0,7.7,6.2,13.9,13.9,13.9
			C270.9,137.2,277.2,130.9,277.2,123.3z"/>
		<linearGradient id="SVGID_16_" gradientUnits="userSpaceOnUse" x1="89.0569" y1="34.754" x2="109.3617" y2="34.754">
			<stop  offset="0" style="stop-color:#AF4090"/>
			<stop  offset="1" style="stop-color:#61388E"/>
		</linearGradient>
		<path class="st33" d="M109.4,34.8c0-5.6-4.5-10.2-10.2-10.2c-5.6,0-10.2,4.5-10.2,10.2c0,5.6,4.5,10.2,10.2,10.2
			C104.8,44.9,109.4,40.4,109.4,34.8z"/>
	</g>
</g>
</svg>
