<?xml version="1.0" encoding="utf-8"?>
<!-- Generator: Adobe Illustrator 25.0.0, SVG Export Plug-In . SVG Version: 6.00 Build 0)  -->
<svg version="1.1" id="Capa_1" xmlns="http://www.w3.org/2000/svg" xmlns:xlink="http://www.w3.org/1999/xlink" x="0px" y="0px"
	 viewBox="0 0 200 200" style="enable-background:new 0 0 200 200;" xml:space="preserve">
<style type="text/css">
	.st0{fill:#606060;}
</style>
<g>
	<path class="st0" d="M192.1,100.1c0.8,50.1-41.7,92-91.9,92.1c-50.3,0-92.4-42-92.3-92.4C8,48.9,50.6,7.8,100.1,7.8
		C150.6,7.9,193,50,192.1,100.1z M100.2,22.9c-42.1-0.7-77.3,35.6-77.4,76.9c-0.1,41,34.3,77.5,77.1,77.5
		c42.3,0,77.4-35.3,77.4-77.3C177.4,58.2,142.2,22.4,100.2,22.9z"/>
	<path class="st0" d="M100.2,28.7c39.7-0.1,71.3,32.2,71.2,71.4c-0.1,39.9-32.4,71.3-71.5,71.2c-39.6-0.1-71.3-32.1-71.2-71.5
		C28.9,60.2,61,28.4,100.2,28.7z M113.6,87.4c1.1-0.2,2-0.4,3-0.6c8.8-1.7,17.6-3.4,26.5-5.2c3.8-0.8,5.7-3.7,4.9-7.3
		c-0.8-3.5-3.5-5-7.5-4.2c-7.5,1.5-15,3.1-22.5,4.4c-8.1,1.4-16.4,2.6-24.6,1.4c-11.5-1.8-23-3.9-34.4-5.9c-3.7-0.7-6.7,1.5-6.9,5.2
		c-0.2,3.1,1.8,5.7,5,6.5c1.7,0.4,3.4,0.8,5.1,1.1c8.1,1.6,16.1,3.2,23.8,4.7c0,6.6,0.4,13.2-0.1,19.8c-0.8,11.7-2,23.4-7.2,34.3
		c-0.5,1-0.9,2-1.2,3c-1.2,4,0.5,8,4,9.1c3.8,1.2,7.5-0.6,8.9-4.7c2.2-6.5,4.2-13.1,6.2-19.8c0.8-2.7,1.1-5.5,1.6-8.2
		c1.3,0,2.5,0,3.4,0c1.1,4.8,2,9.5,3.3,14c1.3,4.6,3,9.2,4.6,13.7c1.2,3.4,3.8,5.4,6.8,5.3c5-0.1,7.8-4.8,6-9.9
		c-1.3-3.7-3.1-7.2-4.2-11c-3.1-11.3-4.2-22.9-4.5-34.6C113.5,94.8,113.6,91.2,113.6,87.4z M99.8,71.7c7.3,0.2,13.4-5.6,13.7-13
		c0.2-6.7-6-13.2-12.8-13.4c-7.7-0.2-13.5,5.3-13.8,13C86.4,65.2,92.5,71.5,99.8,71.7z"/>
</g>
</svg>
